<svg xmlns="http://www.w3.org/2000/svg" xmlns:xlink="http://www.w3.org/1999/xlink" width="200" zoomAndPan="magnify" viewBox="0 0 150 359.999987" height="480" preserveAspectRatio="xMidYMid meet" version="1.0"><defs><clipPath id="09de4696e7"><path d="M 1.027344 7.5 L 149.753906 7.5 L 149.753906 285.761719 L 1.027344 285.761719 Z M 1.027344 7.5 " clip-rule="nonzero"/></clipPath><clipPath id="b643d41e12"><path d="M 16.515625 315.386719 L 135 315.386719 L 135 353 L 16.515625 353 Z M 16.515625 315.386719 " clip-rule="nonzero"/></clipPath><clipPath id="5205685382"><path d="M 115.417969 352.492188 L 35.339844 352.492188 C 30.4375 352.492188 25.835938 350.589844 22.335938 347.191406 C 18.835938 343.757812 16.867188 339.1875 16.769531 334.320312 C 16.667969 329.355469 18.535156 324.652344 22.070312 321.085938 C 25.601562 317.453125 30.539062 315.386719 35.605469 315.386719 L 115.6875 315.386719 C 120.585938 315.386719 125.1875 317.285156 128.6875 320.6875 C 132.1875 324.121094 134.15625 328.6875 134.257812 333.554688 C 134.355469 338.523438 132.488281 343.222656 128.957031 346.789062 C 125.421875 350.425781 120.488281 352.492188 115.417969 352.492188 Z M 115.417969 352.492188 " clip-rule="nonzero"/></clipPath></defs><g clip-path="url(#09de4696e7)"><path fill="#000000" d="M 74.28125 283.195312 C 112.277344 283.195312 142.929688 252.3125 142.929688 214.3125 L 143.160156 76.539062 C 143.160156 38.421875 112.394531 7.65625 74.28125 7.65625 C 36.28125 7.65625 5.398438 38.421875 5.398438 76.539062 L 5.398438 214.3125 C 5.398438 252.3125 36.28125 283.195312 74.28125 283.195312 Z M 195.96875 214.3125 C 195.96875 283.195312 137.765625 331.417969 74.28125 331.417969 C 10.910156 331.417969 -47.40625 283.195312 -47.40625 214.3125 L -86.441406 214.3125 C -86.441406 292.726562 -23.988281 357.476562 51.320312 368.613281 L 51.320312 443.929688 L 97.242188 443.929688 L 97.242188 368.613281 C 172.550781 357.476562 235 292.726562 235 214.3125 Z M 195.96875 214.3125 " fill-opacity="1" fill-rule="nonzero"/></g><g clip-path="url(#b643d41e12)"><g clip-path="url(#5205685382)"><path fill="#000000" d="M 16.667969 315.386719 L 16.667969 352.492188 L 134.355469 352.492188 L 134.355469 315.386719 Z M 16.667969 315.386719 " fill-opacity="1" fill-rule="nonzero"/></g></g></svg>